<svg width="64" height="45" viewBox="0 0 64 45" fill="none" xmlns="http://www.w3.org/2000/svg">
<ellipse cx="45" cy="10" rx="4" ry="4.5" fill="#D9D9D9"/>
<ellipse cx="32" cy="10" rx="5" ry="4.5" fill="#D9D9D9"/>
<circle cx="19.5" cy="10" r="4.5" fill="#D9D9D9"/>
<ellipse cx="19.5" cy="23" rx="4.5" ry="5.5" fill="#D9D9D9"/>
<circle cx="19.5" cy="36" r="4.5" fill="#D9D9D9"/>
<ellipse cx="32" cy="36" rx="5" ry="4.5" fill="#D9D9D9"/>
<ellipse cx="31.5" cy="22.5" rx="1.5" ry="1" fill="#D9D9D9"/>
<circle cx="44.5" cy="23" r="1.5" fill="#D9D9D9"/>
<circle cx="44.5" cy="35" r="1.5" fill="#D9D9D9"/>
<path d="M34 13.5C37.2436 10.7699 39.2188 10.8223 43 13.5V6.5C39.4856 7.85863 37.5145 7.88516 34 6.5V13.5Z" fill="#D9D9D9"/>
<path d="M22 14.5C25.2436 11.3798 27.2188 11.4398 31 14.5V6.5C27.4856 8.05272 25.5145 8.08304 22 6.5V14.5Z" fill="#D9D9D9"/>
<path d="M22 39.5C25.2436 36.3798 27.2188 36.4398 31 39.5V31.5C27.4856 33.0527 25.5145 33.083 22 31.5V39.5Z" fill="#D9D9D9"/>
<path d="M16.2116 12.0289C18.8601 15.5136 18.8035 17.6313 16.1864 21.6787L23.0004 21.6965C21.6877 17.9249 21.6674 15.8114 23.0257 12.0467L16.2116 12.0289Z" fill="#D9D9D9"/>
<path d="M16.2116 24.5845C18.8601 28.0692 18.8035 30.1869 16.1864 34.2343L23.0004 34.2521C21.6877 30.4805 21.6674 28.367 23.0257 24.6023L16.2116 24.5845Z" fill="#D9D9D9"/>
</svg>
